<svg width="278" height="244" viewBox="0 0 278 244" fill="none" xmlns="http://www.w3.org/2000/svg">
<mask id="path-1-inside-1" fill="white">
<path d="M239.171 10.9589C257.603 30.8518 269.722 55.7637 273.996 82.5443C278.269 109.325 274.506 136.771 263.181 161.413C251.855 186.054 233.478 206.784 210.371 220.981C187.265 235.178 160.467 242.204 133.367 241.171C106.268 240.138 80.0827 231.092 58.1241 215.177C36.1655 199.262 19.4192 177.193 10.0031 151.761C0.586989 126.329 -1.07614 98.6754 5.22406 72.298C11.5242 45.9205 25.5048 22.0036 45.3977 3.57175L110.834 74.1955C104.909 79.6852 100.745 86.8086 98.869 94.6648C96.9925 102.521 97.4879 110.757 100.292 118.332C103.097 125.907 108.085 132.48 114.625 137.22C121.165 141.96 128.964 144.654 137.035 144.962C145.106 145.269 153.088 143.177 159.97 138.948C166.852 134.72 172.325 128.546 175.698 121.207C179.072 113.867 180.193 105.693 178.92 97.7166C177.647 89.7403 174.037 82.3205 168.548 76.3956L239.171 10.9589Z"/>
</mask>
<path d="M239.171 10.9589C257.603 30.8518 269.722 55.7637 273.996 82.5443C278.269 109.325 274.506 136.771 263.181 161.413C251.855 186.054 233.478 206.784 210.371 220.981C187.265 235.178 160.467 242.204 133.367 241.171C106.268 240.138 80.0827 231.092 58.1241 215.177C36.1655 199.262 19.4192 177.193 10.0031 151.761C0.586989 126.329 -1.07614 98.6754 5.22406 72.298C11.5242 45.9205 25.5048 22.0036 45.3977 3.57175L110.834 74.1955C104.909 79.6852 100.745 86.8086 98.869 94.6648C96.9925 102.521 97.4879 110.757 100.292 118.332C103.097 125.907 108.085 132.48 114.625 137.22C121.165 141.96 128.964 144.654 137.035 144.962C145.106 145.269 153.088 143.177 159.97 138.948C166.852 134.72 172.325 128.546 175.698 121.207C179.072 113.867 180.193 105.693 178.92 97.7166C177.647 89.7403 174.037 82.3205 168.548 76.3956L239.171 10.9589Z" fill="#595252" stroke="white" stroke-width="20" mask="url(#path-1-inside-1)"/>
</svg>
