<svg width="346" height="327" viewBox="0 0 346 327" fill="none" xmlns="http://www.w3.org/2000/svg">
<mask id="path-1-inside-1" fill="white">
<path d="M120.296 303.267C95.8464 291.534 75.4249 272.814 61.6142 249.475C47.8035 226.135 41.2238 199.225 42.7074 172.146C44.1909 145.067 53.6708 119.036 69.9485 97.345C86.2262 75.654 108.57 59.277 134.156 50.285C159.741 41.293 187.418 40.0898 213.687 46.8277C239.956 53.5655 263.638 67.9417 281.736 88.1384C299.835 108.335 311.538 133.445 315.366 160.293C319.193 187.141 314.974 214.521 303.241 238.971L216.439 197.315C219.934 190.033 221.191 181.879 220.05 173.882C218.91 165.886 215.425 158.407 210.034 152.392C204.644 146.376 197.591 142.095 189.767 140.088C181.943 138.081 173.699 138.439 166.079 141.118C158.459 143.796 151.804 148.673 146.956 155.134C142.108 161.594 139.284 169.347 138.842 177.412C138.4 185.478 140.36 193.493 144.473 200.444C148.587 207.395 154.669 212.971 161.951 216.465L120.296 303.267Z"/>
</mask>
<path d="M120.296 303.267C95.8464 291.534 75.4249 272.814 61.6142 249.475C47.8035 226.135 41.2238 199.225 42.7074 172.146C44.1909 145.067 53.6708 119.036 69.9485 97.345C86.2262 75.654 108.57 59.277 134.156 50.285C159.741 41.293 187.418 40.0898 213.687 46.8277C239.956 53.5655 263.638 67.9417 281.736 88.1384C299.835 108.335 311.538 133.445 315.366 160.293C319.193 187.141 314.974 214.521 303.241 238.971L216.439 197.315C219.934 190.033 221.191 181.879 220.05 173.882C218.91 165.886 215.425 158.407 210.034 152.392C204.644 146.376 197.591 142.095 189.767 140.088C181.943 138.081 173.699 138.439 166.079 141.118C158.459 143.796 151.804 148.673 146.956 155.134C142.108 161.594 139.284 169.347 138.842 177.412C138.4 185.478 140.36 193.493 144.473 200.444C148.587 207.395 154.669 212.971 161.951 216.465L120.296 303.267Z" fill="#595252" stroke="white" stroke-width="20" mask="url(#path-1-inside-1)"/>
</svg>
