<svg id="eC3FxtgBDYZ1" xmlns="http://www.w3.org/2000/svg" xmlns:xlink="http://www.w3.org/1999/xlink" viewBox="0 0 358 498" shape-rendering="geometricPrecision" text-rendering="geometricPrecision"><style><![CDATA[#eC3FxtgBDYZ2_tr {animation: eC3FxtgBDYZ2_tr__tr 3000ms linear infinite normal forwards}@keyframes eC3FxtgBDYZ2_tr__tr { 0% {transform: translate(170.947861px,157.328072px) rotate(-49.662999deg)} 33.333333% {transform: translate(170.947861px,157.328072px) rotate(46.211399deg)} 66.666667% {transform: translate(170.947861px,157.328072px) rotate(-49.662999deg)} 100% {transform: translate(170.947861px,157.328072px) rotate(-49.662999deg)}} #eC3FxtgBDYZ6_tr {animation: eC3FxtgBDYZ6_tr__tr 3000ms linear infinite normal forwards}@keyframes eC3FxtgBDYZ6_tr__tr { 0% {transform: translate(178.977180px,311.804611px) rotate(-27.138802deg)} 33.333333% {transform: translate(178.977180px,311.804611px) rotate(61.337461deg)} 66.666667% {transform: translate(178.977180px,311.804611px) rotate(-27.138802deg)} 100% {transform: translate(178.977180px,311.804611px) rotate(-27.138802deg)}}]]></style><g id="eC3FxtgBDYZ2_tr" transform="translate(170.947861,157.328072) rotate(-49.662999)"><g id="eC3FxtgBDYZ2" transform="translate(-170.947861,-157.328072)" mask="url(#eC3FxtgBDYZ4)"><path id="eC3FxtgBDYZ3" d="M271.528000,45.865700C289.960000,65.758600,302.079000,90.670500,306.353000,117.451000C310.626000,144.232000,306.863000,171.678000,295.538000,196.320000C284.212000,220.961000,265.835000,241.691000,242.728000,255.888000C219.622000,270.085000,192.824000,277.111000,165.724000,276.078000C138.625000,275.045000,112.440000,265.999000,90.481100,250.084000C68.522500,234.169000,51.776300,212.100000,42.360100,186.668000C32.944000,161.236000,31.280900,133.582000,37.581000,107.205000C43.881200,80.827300,57.861800,56.910400,77.754700,38.478600L143.191000,109.102000C137.266000,114.592000,133.102000,121.715000,131.226000,129.572000C129.350000,137.428000,129.845000,145.664000,132.649000,153.239000C135.454000,160.814000,140.442000,167.387000,146.982000,172.127000C153.522000,176.867000,161.321000,179.561000,169.392000,179.869000C177.463000,180.176000,185.445000,178.084000,192.327000,173.855000C199.209000,169.627000,204.682000,163.453000,208.055000,156.113000C211.429000,148.774000,212.550000,140.600000,211.277000,132.623000C210.004000,124.647000,206.394000,117.227000,200.905000,111.302000L271.528000,45.865700Z" transform="matrix(1 0 0 1 0.16288536734530 -1.99700471445482)" fill="rgb(80,80,80)" stroke="rgb(255,255,255)" stroke-width="20" stroke-miterlimit="1"/><mask id="eC3FxtgBDYZ4" mask-type="luminance"><path id="eC3FxtgBDYZ5" d="M271.528000,45.865700C289.960000,65.758600,302.079000,90.670500,306.353000,117.451000C310.626000,144.232000,306.863000,171.678000,295.538000,196.320000C284.212000,220.961000,265.835000,241.691000,242.728000,255.888000C219.622000,270.085000,192.824000,277.111000,165.724000,276.078000C138.625000,275.045000,112.440000,265.999000,90.481100,250.084000C68.522500,234.169000,51.776300,212.100000,42.360100,186.668000C32.944000,161.236000,31.280900,133.582000,37.581000,107.205000C43.881200,80.827300,57.861800,56.910400,77.754700,38.478600L143.191000,109.102000C137.266000,114.592000,133.102000,121.715000,131.226000,129.572000C129.350000,137.428000,129.845000,145.664000,132.649000,153.239000C135.454000,160.814000,140.442000,167.387000,146.982000,172.127000C153.522000,176.867000,161.321000,179.561000,169.392000,179.869000C177.463000,180.176000,185.445000,178.084000,192.327000,173.855000C199.209000,169.627000,204.682000,163.453000,208.055000,156.113000C211.429000,148.774000,212.550000,140.600000,211.277000,132.623000C210.004000,124.647000,206.394000,117.227000,200.905000,111.302000L271.528000,45.865700Z" fill="rgb(255,255,255)" stroke="none" stroke-width="1" stroke-miterlimit="1"/></mask></g></g><g id="eC3FxtgBDYZ6_tr" transform="translate(178.977180,311.804611) rotate(-27.138802)"><g id="eC3FxtgBDYZ6" transform="translate(-178.977180,-311.804611)" mask="url(#eC3FxtgBDYZ8)"><path id="eC3FxtgBDYZ7" d="M119.653000,442.174000C95.203400,430.441000,74.781900,411.721000,60.971200,388.381000C47.160500,365.042000,40.580800,338.131000,42.064300,311.052000C43.547800,283.974000,53.027800,257.943000,69.305500,236.252000C85.583200,214.561000,107.927000,198.184000,133.513000,189.192000C159.098000,180.200000,186.775000,178.997000,213.044000,185.734000C239.313000,192.472000,262.994000,206.849000,281.093000,227.045000C299.192000,247.242000,310.895000,272.352000,314.723000,299.200000C318.550000,326.048000,314.331000,353.428000,302.598000,377.877000L215.796000,336.222000C219.291000,328.940000,220.548000,320.785000,219.407000,312.789000C218.267000,304.793000,214.782000,297.314000,209.391000,291.299000C204.001000,285.283000,196.948000,281.001000,189.124000,278.995000C181.300000,276.988000,173.056000,277.346000,165.436000,280.024000C157.816000,282.702000,151.161000,287.580000,146.313000,294.041000C141.465000,300.501000,138.641000,308.254000,138.199000,316.319000C137.757000,324.384000,139.717000,332.399000,143.830000,339.351000C147.944000,346.302000,154.026000,351.878000,161.308000,355.372000L119.653000,442.174000Z" transform="matrix(0.99873091905226 0.05036418696884 -0.05036418696884 0.99873091905226 15.93092226635747 -8.61833488939919)" fill="rgb(80,80,80)" stroke="rgb(255,255,255)" stroke-width="20" stroke-miterlimit="1"/><mask id="eC3FxtgBDYZ8" mask-type="luminance"><path id="eC3FxtgBDYZ9" d="M119.653000,442.174000C95.203400,430.441000,74.781900,411.721000,60.971200,388.381000C47.160500,365.042000,40.580800,338.131000,42.064300,311.052000C43.547800,283.974000,53.027800,257.943000,69.305500,236.252000C85.583200,214.561000,107.927000,198.184000,133.513000,189.192000C159.098000,180.200000,186.775000,178.997000,213.044000,185.734000C239.313000,192.472000,262.994000,206.849000,281.093000,227.045000C299.192000,247.242000,310.895000,272.352000,314.723000,299.200000C318.550000,326.048000,314.331000,353.428000,302.598000,377.877000L215.796000,336.222000C219.291000,328.940000,220.548000,320.785000,219.407000,312.789000C218.267000,304.793000,214.782000,297.314000,209.391000,291.299000C204.001000,285.283000,196.948000,281.001000,189.124000,278.995000C181.300000,276.988000,173.056000,277.346000,165.436000,280.024000C157.816000,282.702000,151.161000,287.580000,146.313000,294.041000C141.465000,300.501000,138.641000,308.254000,138.199000,316.319000C137.757000,324.384000,139.717000,332.399000,143.830000,339.351000C147.944000,346.302000,154.026000,351.878000,161.308000,355.372000L119.653000,442.174000Z" fill="rgb(255,255,255)" stroke="none" stroke-width="1" stroke-miterlimit="1"/></mask></g></g></svg>